<svg xmlns="http://www.w3.org/2000/svg" viewBox="0 0 600 330" fill="none">
      <rect width="600" height="330" fill="#0b0f17"/>
      <text x="24" y="30" fill="#f1f5ff" font-family="ui-sans-serif, system-ui, sans-serif" font-size="18">Regent sigil preview v0.2</text>
      <text x="24" y="52" fill="#8ba4c7" font-family="ui-sans-serif, system-ui, sans-serif" font-size="11">Gate · Eye · Seed · Fuse · Seal · Wedge</text>

      <g transform="translate(40,70)" color="#d9ebff">
        <g transform="translate(-32,-32)">
          <path d="M18 14H46V50H36V42H28V50H18Z"/>
<path d="M18 26H46"/>
        </g>
        <text x="0" y="54" fill="#eef5ff" font-family="ui-sans-serif, system-ui, sans-serif" font-size="12" text-anchor="middle">GATE</text>
        <text x="0" y="72" fill="#8aa0c3" font-family="ui-sans-serif, system-ui, sans-serif" font-size="10" text-anchor="middle">enter / open / navigate</text>
      </g>

      <g transform="translate(220,70)" color="#d9ebff">
        <g transform="translate(-32,-32)">
          <path d="M10 32C16 22 24 18 32 18C40 18 48 22 54 32C48 42 40 46 32 46C24 46 16 42 10 32Z"/>
<circle cx="32" cy="32" r="5"/>
        </g>
        <text x="0" y="54" fill="#eef5ff" font-family="ui-sans-serif, system-ui, sans-serif" font-size="12" text-anchor="middle">EYE</text>
        <text x="0" y="72" fill="#8aa0c3" font-family="ui-sans-serif, system-ui, sans-serif" font-size="10" text-anchor="middle">inspect / review / reveal</text>
      </g>

      <g transform="translate(400,70)" color="#d9ebff">
        <g transform="translate(-32,-32)">
          <rect x="27" y="27" width="10" height="10" rx="2"/>
<path d="M32 27V15"/>
<path d="M37 34L49 40"/>
<path d="M27 34L15 40"/>
<circle cx="32" cy="12" r="3"/>
<circle cx="52" cy="41" r="3"/>
<circle cx="12" cy="41" r="3"/>
        </g>
        <text x="0" y="54" fill="#eef5ff" font-family="ui-sans-serif, system-ui, sans-serif" font-size="12" text-anchor="middle">SEED</text>
        <text x="0" y="72" fill="#8aa0c3" font-family="ui-sans-serif, system-ui, sans-serif" font-size="10" text-anchor="middle">create / initialize / unlock origin</text>
      </g>

      <g transform="translate(40,210)" color="#d9ebff">
        <g transform="translate(-32,-32)">
          <path d="M14 38H28"/>
<path d="M28 38H36"/>
<path d="M40 38H46"/>
<path d="M46 26L54 38L46 50"/>
<circle cx="38" cy="26" r="3"/>
        </g>
        <text x="0" y="54" fill="#eef5ff" font-family="ui-sans-serif, system-ui, sans-serif" font-size="12" text-anchor="middle">FUSE</text>
        <text x="0" y="72" fill="#8aa0c3" font-family="ui-sans-serif, system-ui, sans-serif" font-size="10" text-anchor="middle">launch / ignite / commit motion</text>
      </g>

      <g transform="translate(220,210)" color="#d9ebff">
        <g transform="translate(-32,-32)">
          <rect x="18" y="18" width="28" height="28" rx="6"/>
<circle cx="32" cy="32" r="5"/>
<path d="M32 13V18"/>
<path d="M32 46V51"/>
<path d="M13 32H18"/>
<path d="M46 32H51"/>
        </g>
        <text x="0" y="54" fill="#eef5ff" font-family="ui-sans-serif, system-ui, sans-serif" font-size="12" text-anchor="middle">SEAL</text>
        <text x="0" y="72" fill="#8aa0c3" font-family="ui-sans-serif, system-ui, sans-serif" font-size="10" text-anchor="middle">approve / lock / finalize</text>
      </g>

      <g transform="translate(400,210)" color="#d9ebff">
        <g transform="translate(-32,-32)">
          <path d="M18 18H46"/>
<path d="M20 44L32 22L44 44Z"/>
<path d="M32 44V50"/>
        </g>
        <text x="0" y="54" fill="#eef5ff" font-family="ui-sans-serif, system-ui, sans-serif" font-size="12" text-anchor="middle">WEDGE</text>
        <text x="0" y="72" fill="#8aa0c3" font-family="ui-sans-serif, system-ui, sans-serif" font-size="10" text-anchor="middle">halt / stop / kill / override</text>
      </g>

    </svg>
